<?xml version="1.0" encoding="UTF-8"?><svg id="Calque_2" xmlns="http://www.w3.org/2000/svg" width="180" height="64" viewBox="0 0 180 64"><defs><style>.cls-1{fill:#fff;}.cls-2{fill:#ec0300;}</style></defs><g id="Calque_2-2"><g><path d="M64.15,4.35c.42-.42,.98-.76,1.67-1.03,.69-.27,1.55-.4,2.56-.4,1.08,0,2.01,.15,2.79,.46,.78,.31,1.44,.72,1.99,1.24,.55,.52,1.01,1.13,1.38,1.82,.37,.7,.7,1.42,.98,2.18h4.89c-.36-1.2-.87-2.33-1.54-3.38-.67-1.05-1.5-1.97-2.49-2.75-.99-.78-2.13-1.39-3.43-1.84-1.3-.44-2.74-.66-4.33-.66-1.94,0-3.66,.23-5.17,.67-1.51,.45-2.79,1.07-3.84,1.87-1.05,.8-1.85,1.74-2.4,2.82-.55,1.08-.83,2.26-.83,3.54,0,1.17,.24,2.21,.73,3.11,.48,.91,1.12,1.72,1.92,2.44,.8,.72,1.7,1.37,2.72,1.95,1.01,.58,2.05,1.14,3.11,1.67,1.06,.53,2.1,1.05,3.11,1.58,1.01,.52,1.92,1.09,2.72,1.69,.8,.61,1.44,1.28,1.92,2.03,.48,.74,.73,1.59,.73,2.53,0,.76-.16,1.39-.47,1.91-.31,.51-.73,.93-1.24,1.26-.52,.32-1.1,.56-1.74,.7-.65,.14-1.3,.21-1.95,.21-1,0-1.88-.15-2.63-.44-.76-.29-1.41-.69-1.97-1.21-.55-.51-1.01-1.12-1.37-1.81-.36-.7-.63-1.45-.82-2.25h-5.41c.22,1.31,.62,2.52,1.22,3.61,.59,1.1,1.39,2.04,2.39,2.83,1,.79,2.21,1.41,3.64,1.86,1.43,.45,3.09,.68,5,.68,2.03,0,3.82-.24,5.37-.71,1.55-.47,2.85-1.12,3.9-1.95,1.05-.83,1.83-1.8,2.36-2.93,.53-1.12,.8-2.34,.8-3.65,0-1.11-.25-2.1-.75-2.98-.5-.88-1.16-1.69-1.98-2.42-.82-.73-1.75-1.39-2.8-2-1.05-.61-2.11-1.19-3.2-1.74-1.08-.55-2.15-1.1-3.2-1.65-1.05-.54-1.98-1.12-2.8-1.72-.82-.6-1.48-1.25-1.98-1.94-.5-.69-.75-1.47-.75-2.32,0-.49,.09-.99,.28-1.5,.19-.51,.49-.98,.91-1.4Zm27.4,23.38c-.29-.29-.63-.52-1.03-.7-.4-.17-.82-.26-1.28-.26s-.87,.09-1.25,.26c-.38,.17-.72,.41-1.02,.7-.3,.29-.53,.64-.69,1.04-.16,.4-.25,.83-.25,1.27s.08,.88,.25,1.28c.16,.39,.39,.73,.69,1.02,.3,.28,.64,.51,1.02,.68,.38,.17,.8,.25,1.25,.25s.88-.08,1.28-.25c.4-.17,.74-.39,1.03-.68,.29-.28,.52-.62,.69-1.02,.17-.39,.26-.82,.26-1.28s-.09-.86-.26-1.27c-.17-.4-.4-.75-.69-1.04ZM120.49,5.77c-.66-1.13-1.56-2.07-2.7-2.83-1.15-.76-2.5-1.33-4.05-1.71-1.55-.38-3.22-.57-5-.57h-11.07V32.78h7.82v-14.02h4.59c1.44,0,2.84-.19,4.2-.56,1.37-.37,2.58-.94,3.65-1.69,1.07-.76,1.93-1.7,2.57-2.83,.65-1.13,.97-2.45,.97-3.97s-.33-2.81-.98-3.94Zm-7.51,6.34c-.22,.73-.55,1.37-.98,1.93-.44,.56-.98,1-1.64,1.33-.66,.32-1.43,.49-2.32,.49h-2.55V3.79h2.34c.76,0,1.48,.13,2.14,.4,.66,.27,1.24,.66,1.73,1.17,.49,.51,.88,1.14,1.17,1.88,.29,.74,.43,1.59,.43,2.56,0,.81-.11,1.57-.33,2.3Zm13.49,15.62c-.29-.29-.63-.52-1.03-.7-.4-.17-.82-.26-1.28-.26s-.87,.09-1.25,.26c-.38,.17-.72,.41-1.02,.7-.3,.29-.53,.64-.69,1.04-.16,.4-.25,.83-.25,1.27s.08,.88,.25,1.28c.16,.39,.39,.73,.69,1.02,.3,.28,.64,.51,1.02,.68,.38,.17,.8,.25,1.25,.25s.88-.08,1.28-.25c.4-.17,.74-.39,1.03-.68,.29-.28,.52-.62,.69-1.02,.17-.39,.26-.82,.26-1.28s-.09-.86-.26-1.27c-.17-.4-.4-.75-.69-1.04ZM147.78,0h-3.37l-15.47,32.78h5.29l4.17-8.76h12.34l3.98,8.76h7.96L147.78,0Zm-7.91,21.03l4.85-10.38,4.7,10.38h-9.55ZM30.34,12.83c3.53-.89,5.69-4.43,4.83-7.91-.86-3.47-4.41-5.57-7.93-4.69-3.52,.89-5.68,4.43-4.83,7.9,.86,3.47,4.41,5.57,7.93,4.69Zm11.41-8.71c-2.99,.76-4.82,3.83-4.07,6.86,.75,3.03,3.78,4.88,6.78,4.12,2.99-.76,4.82-3.83,4.07-6.86-.75-3.03-3.78-4.87-6.78-4.12ZM16.7,12.5c-2.99,.75-4.81,3.82-4.07,6.85,.75,3.03,3.78,4.87,6.77,4.12,2.99-.76,4.82-3.82,4.07-6.85-.75-3.03-3.78-4.88-6.78-4.12Zm14.67,3.16c-6.54,.96-7.66,12.9-7.66,12.9,0,0-.32,6.94,11.56,4.28,12.87-2.87,8.22-10.64,8.22-10.64,0,0-5.58-7.51-12.12-6.54Z"/><rect class="cls-2" y="39.19" width="180" height="24.81"/><rect class="cls-1" x="160.19" y="43.33" width="4.13" height="16.56"/><path class="cls-1" d="M155.74,48.05c-.5-1.04-1.18-1.93-2.05-2.68-.87-.75-1.89-1.33-3.06-1.75-1.17-.42-2.44-.63-3.8-.63s-2.63,.21-3.81,.62c-1.18,.42-2.2,1-3.06,1.75-.86,.75-1.54,1.65-2.03,2.69-.49,1.05-.74,2.2-.74,3.45s.25,2.45,.74,3.52c.49,1.07,1.17,1.99,2.03,2.77,.86,.78,1.88,1.38,3.06,1.81,1.18,.43,2.45,.65,3.81,.65,.9,0,1.77-.1,2.6-.29,.83-.19,1.6-.47,2.32-.82,.72-.36,1.37-.79,1.95-1.31,.58-.51,1.08-1.09,1.49-1.75,.41-.65,.73-1.37,.96-2.14,.22-.78,.34-1.61,.34-2.48,0-1.24-.25-2.38-.75-3.41Zm-4.18,6.4c-.22,.9-.54,1.67-.96,2.33-.42,.65-.95,1.16-1.58,1.53-.63,.37-1.36,.56-2.18,.56s-1.56-.19-2.19-.56c-.63-.37-1.16-.88-1.58-1.53-.42-.65-.74-1.43-.96-2.33-.22-.9-.32-1.88-.32-2.95s.11-2.01,.32-2.88c.22-.87,.53-1.62,.96-2.25,.42-.63,.95-1.11,1.58-1.47,.63-.35,1.36-.53,2.19-.53s1.55,.18,2.18,.53c.63,.35,1.16,.84,1.58,1.47,.42,.63,.74,1.38,.96,2.25,.22,.87,.33,1.83,.33,2.88s-.11,2.05-.33,2.95Z"/><path class="cls-1" d="M130.79,51.97c.57-.18,1.1-.4,1.57-.68,.48-.27,.88-.59,1.22-.94,.34-.35,.6-.74,.78-1.16,.19-.42,.28-.86,.28-1.34,0-.65-.14-1.25-.41-1.81-.27-.55-.68-1.03-1.23-1.43-.54-.4-1.22-.72-2.04-.94-.82-.22-1.77-.34-2.87-.34h-6.34v16.56h4.14v-7.48h.73l5.66,7.48h4.5l-6.01-7.92Zm-.73-2.76c-.18,.37-.42,.69-.74,.95-.32,.26-.69,.45-1.12,.59-.43,.14-.9,.21-1.41,.21h-.9v-6.01h1.68c.4,0,.77,.07,1.11,.22,.34,.15,.63,.35,.87,.62,.24,.26,.43,.58,.57,.95,.14,.37,.21,.77,.21,1.21,0,.47-.09,.9-.27,1.27Z"/><polygon class="cls-1" points="51.94 59.89 47.84 59.89 47.84 52 41.06 52 41.06 59.89 36.92 59.89 36.92 43.33 41.06 43.33 41.06 50.59 47.84 50.59 47.84 43.33 51.94 43.33 51.94 59.89"/><path class="cls-1" d="M20.78,54.44c.33,.82,.77,1.51,1.32,2.07,.55,.56,1.18,.98,1.89,1.27,.71,.29,1.46,.43,2.23,.43,.59,0,1.14-.1,1.65-.3,.51-.2,.99-.47,1.43-.81,.44-.34,.86-.74,1.25-1.18,.39-.45,.76-.92,1.12-1.42l1.73,1.25c-.37,.59-.82,1.15-1.35,1.7-.53,.54-1.12,1.03-1.77,1.44-.66,.42-1.37,.75-2.14,1-.77,.25-1.59,.37-2.45,.37-1.45,0-2.79-.21-4.01-.62-1.22-.42-2.28-1-3.16-1.76-.89-.76-1.58-1.67-2.08-2.73-.5-1.06-.75-2.25-.75-3.55s.24-2.42,.71-3.48c.47-1.06,1.14-1.97,2-2.74,.86-.77,1.89-1.37,3.08-1.8,1.2-.43,2.52-.65,3.97-.65,.97,0,1.86,.11,2.66,.34,.8,.22,1.54,.53,2.2,.93s1.25,.87,1.77,1.42c.52,.55,.98,1.15,1.37,1.81l-1.74,1.2c-.36-.5-.74-.96-1.16-1.4-.42-.44-.86-.82-1.34-1.15-.47-.33-.97-.59-1.49-.78-.52-.19-1.07-.29-1.63-.29-.77,0-1.51,.14-2.21,.43-.7,.29-1.32,.71-1.85,1.26-.53,.56-.95,1.25-1.27,2.07-.32,.82-.47,1.77-.47,2.84s.17,2.02,.5,2.85Z"/><polygon class="cls-1" points="103.87 59.89 91.12 59.89 91.12 43.33 95.26 43.33 95.26 58.19 103.87 58.19 103.87 59.89"/><polygon class="cls-1" points="119.13 44.75 119.13 43.33 106.53 43.33 106.53 59.89 119.13 59.89 119.13 58.19 110.67 58.19 110.67 51.62 117.7 51.62 117.7 50.21 110.67 50.21 110.67 44.75 119.13 44.75"/><path class="cls-1" d="M83.55,51.97c.57-.18,1.1-.4,1.57-.68,.48-.27,.88-.59,1.22-.94,.34-.35,.6-.74,.78-1.16,.19-.42,.28-.86,.28-1.34,0-.65-.14-1.25-.41-1.81-.27-.55-.68-1.03-1.23-1.43-.54-.4-1.22-.72-2.04-.94-.82-.22-1.77-.34-2.87-.34h-6.34v16.56h4.14v-7.48h.73l5.66,7.48h4.5l-6.01-7.92Zm-.73-2.76c-.18,.37-.43,.69-.74,.95-.32,.26-.69,.45-1.12,.59-.43,.14-.9,.21-1.41,.21h-.9v-6.01h1.68c.4,0,.77,.07,1.11,.22,.34,.15,.63,.35,.87,.62,.24,.26,.43,.58,.57,.95,.14,.37,.21,.77,.21,1.21,0,.47-.09,.9-.27,1.27Z"/><path class="cls-1" d="M64.24,42.99h-1.79l-8.22,16.9h2.81l2.21-4.52h6.55l2.11,4.52h4.23l-7.91-16.9Zm-4.2,10.84l2.57-5.35,2.5,5.35h-5.07Z"/></g></g></svg>